<?xml version="1.0" encoding="iso-8859-1"?>
<!DOCTYPE svg PUBLIC "-//W3C//DTD SVG 1.1//EN" "http://www.w3.org/Graphics/SVG/1.1/DTD/svg11.dtd">
<svg 
 version="1.1" xmlns="http://www.w3.org/2000/svg" xmlns:xlink="http://www.w3.org/1999/xlink" x="0px" y="0px" width="512px"
	 height="512px" viewBox="0 0 512 512" style="enable-background:new 0 0 512 512;" xml:space="preserve"
><g id="afcae5a789ccd549f9c6e2a2f80bf7a0"><g></g><path style="display: inline;" d="M370.288,119.222c9.078-6.169,17.436-12.66,24.698-19.105c38.374-34.057,26.747-63.78,3.72-84.212
		C387.927,6.335,376.55,0.5,363.563,0.5c-14.741,0-31.558,7.516-51.964,25.619c-22.039,19.558-44.668,50.585-55.6,77.329
		c-10.933-26.744-33.562-57.771-55.599-77.329C179.995,8.016,163.178,0.496,148.438,0.5c-12.986,0-24.364,5.835-35.144,15.404
		c-23.027,20.433-34.654,50.155,3.721,84.212c7.261,6.445,16.291,12.936,26.077,19.105H20.154V511.5h471.691V119.222H370.288z
		 M339.395,50.786c15.236-13.52,22.844-15.201,24.026-15.385c0.637,0.223,3.078,1.255,7.492,5.17
		c5.992,5.317,9.448,10.457,9.729,14.476c0.349,5.071-4.554,12.506-13.451,20.403c-21.217,18.833-53.411,35.572-75.272,42.145
		C299.238,99.015,317.626,70.102,339.395,50.786z M131.359,55.047c0.28-4.019,3.734-9.159,9.728-14.476
		c4.414-3.923,6.863-4.952,7.496-5.17c1.179,0.184,8.783,1.862,24.019,15.385c21.773,19.316,40.16,48.229,47.48,66.808
		c-21.861-6.572-54.056-23.312-75.271-42.145C135.912,67.553,131.01,60.118,131.359,55.047z M236.347,472.192H59.462V334.616
		h176.885V472.192z M236.347,295.308H59.462V158.529h176.885V295.308z M452.539,472.192H275.654V334.616h176.885V472.192z
		 M452.539,295.308H275.654V158.529h176.885V295.308z"></path></g></svg>